<svg xmlns="http://www.w3.org/2000/svg" xmlns:xlink="http://www.w3.org/1999/xlink" width="500" zoomAndPan="magnify" viewBox="0 0 375 374.999991" height="500" preserveAspectRatio="xMidYMid meet" version="1.0"><defs><g/><clipPath id="bf05ea7cac"><path d="M 109.375 126.46875 L 167.910156 126.46875 L 167.910156 218.683594 L 109.375 218.683594 Z M 109.375 126.46875 " clip-rule="nonzero"/></clipPath><clipPath id="295f7c445e"><path d="M 109.539062 164.699219 L 109.539062 180.199219 L 125.648438 180.199219 L 125.648438 164.699219 Z M 109.539062 126.472656 L 109.539062 141.972656 L 122.425781 141.972656 C 127.800781 141.972656 132.644531 143.261719 136.988281 145.851562 C 141.328125 148.429688 144.734375 152.074219 147.207031 156.75 C 149.667969 161.40625 150.90625 166.636719 150.925781 172.449219 C 150.90625 178.261719 149.667969 183.492188 147.207031 188.152344 C 144.734375 192.828125 141.328125 196.46875 136.988281 199.050781 C 132.644531 201.640625 127.796875 202.929688 122.425781 202.929688 L 109.539062 202.929688 L 109.539062 218.425781 L 122.671875 218.425781 C 131.34375 218.425781 139.113281 216.480469 145.96875 212.578125 C 152.824219 208.6875 158.199219 203.230469 162.078125 196.222656 C 165.941406 189.265625 167.875 181.410156 167.902344 172.640625 L 167.902344 172.257812 C 167.878906 163.492188 165.941406 155.632812 162.078125 148.675781 C 158.199219 141.671875 152.824219 136.207031 145.96875 132.320312 C 139.125 128.425781 131.367188 126.480469 122.707031 126.472656 Z M 109.539062 126.472656 " clip-rule="nonzero"/></clipPath><clipPath id="afe10def77"><path d="M 0.441406 0.46875 L 58.910156 0.46875 L 58.910156 92.640625 L 0.441406 92.640625 Z M 0.441406 0.46875 " clip-rule="nonzero"/></clipPath><clipPath id="f9644e0fd3"><path d="M 0.539062 38.699219 L 0.539062 54.199219 L 16.648438 54.199219 L 16.648438 38.699219 Z M 0.539062 0.472656 L 0.539062 15.972656 L 13.425781 15.972656 C 18.800781 15.972656 23.644531 17.261719 27.988281 19.851562 C 32.328125 22.429688 35.734375 26.074219 38.207031 30.75 C 40.667969 35.40625 41.90625 40.636719 41.925781 46.449219 C 41.90625 52.261719 40.667969 57.492188 38.207031 62.152344 C 35.734375 66.828125 32.328125 70.46875 27.988281 73.050781 C 23.644531 75.640625 18.796875 76.929688 13.425781 76.929688 L 0.539062 76.929688 L 0.539062 92.425781 L 13.671875 92.425781 C 22.34375 92.425781 30.113281 90.480469 36.96875 86.578125 C 43.824219 82.6875 49.199219 77.230469 53.078125 70.222656 C 56.941406 63.265625 58.875 55.410156 58.902344 46.640625 L 58.902344 46.257812 C 58.878906 37.492188 56.941406 29.632812 53.078125 22.675781 C 49.199219 15.671875 43.824219 10.207031 36.96875 6.320312 C 30.125 2.425781 22.367188 0.480469 13.707031 0.472656 Z M 0.539062 0.472656 " clip-rule="nonzero"/></clipPath><clipPath id="b077f15b53"><rect x="0" width="59" y="0" height="93"/></clipPath><clipPath id="53b686a07a"><path d="M 51.167969 164.402344 L 109.703125 164.402344 L 109.703125 256.945312 L 51.167969 256.945312 Z M 51.167969 164.402344 " clip-rule="nonzero"/></clipPath><clipPath id="fb511bb26f"><path d="M 96.402344 164.699219 C 87.730469 164.699219 79.960938 166.644531 73.105469 170.546875 C 66.25 174.4375 60.878906 179.894531 57 186.902344 C 53.117188 193.894531 51.183594 201.792969 51.171875 210.613281 L 51.171875 210.742188 C 51.183594 219.558594 53.117188 227.457031 57 234.449219 C 60.878906 241.453125 66.25 246.914062 73.105469 250.804688 C 79.960938 254.707031 87.730469 256.652344 96.402344 256.652344 L 109.539062 256.652344 L 109.539062 241.15625 L 96.648438 241.15625 C 91.277344 241.15625 86.429688 239.867188 82.089844 237.277344 C 77.75 234.699219 74.34375 231.054688 71.871094 226.378906 C 69.40625 221.71875 68.171875 216.488281 68.152344 210.679688 C 68.171875 204.867188 69.40625 199.636719 71.871094 194.976562 C 74.34375 190.300781 77.75 186.660156 82.089844 184.078125 C 86.429688 181.488281 91.277344 180.199219 96.648438 180.199219 L 109.539062 180.199219 L 109.539062 164.699219 Z M 96.402344 164.699219 " clip-rule="nonzero"/></clipPath><clipPath id="993bb29b89"><path d="M 0.167969 0.640625 L 58.679688 0.640625 L 58.679688 92.800781 L 0.167969 92.800781 Z M 0.167969 0.640625 " clip-rule="nonzero"/></clipPath><clipPath id="5f82f848a0"><path d="M 45.402344 0.699219 C 36.730469 0.699219 28.960938 2.644531 22.105469 6.546875 C 15.25 10.4375 9.878906 15.894531 6 22.902344 C 2.117188 29.894531 0.183594 37.792969 0.171875 46.613281 L 0.171875 46.742188 C 0.183594 55.558594 2.117188 63.457031 6 70.449219 C 9.878906 77.453125 15.25 82.914062 22.105469 86.804688 C 28.960938 90.707031 36.730469 92.652344 45.402344 92.652344 L 58.539062 92.652344 L 58.539062 77.15625 L 45.648438 77.15625 C 40.277344 77.15625 35.429688 75.867188 31.089844 73.277344 C 26.75 70.699219 23.34375 67.054688 20.871094 62.378906 C 18.40625 57.71875 17.171875 52.488281 17.152344 46.679688 C 17.171875 40.867188 18.40625 35.636719 20.871094 30.976562 C 23.34375 26.300781 26.75 22.660156 31.089844 20.078125 C 35.429688 17.488281 40.277344 16.199219 45.648438 16.199219 L 58.539062 16.199219 L 58.539062 0.699219 Z M 45.402344 0.699219 " clip-rule="nonzero"/></clipPath><clipPath id="ce63a9bc38"><rect x="0" width="59" y="0" height="93"/></clipPath></defs><g fill="#ffffff" fill-opacity="1"><g transform="translate(119.428936, 252.732567)"><g><path d="M 3.640625 -12.59375 L 4.953125 -12.59375 L 2.4375 0 L 1.109375 0 Z M 3.640625 -12.59375 "/></g></g></g><g fill="#ffffff" fill-opacity="1"><g transform="translate(124.864925, 252.732567)"><g><path d="M 14.3125 -9.546875 C 15.375 -9.546875 16.195312 -9.273438 16.78125 -8.734375 C 17.363281 -8.203125 17.65625 -7.457031 17.65625 -6.5 C 17.65625 -6.21875 17.613281 -5.84375 17.53125 -5.375 L 16.453125 0 L 15.171875 0 L 16.25 -5.40625 C 16.3125 -5.675781 16.34375 -5.96875 16.34375 -6.28125 C 16.34375 -6.957031 16.144531 -7.476562 15.75 -7.84375 C 15.351562 -8.207031 14.769531 -8.390625 14 -8.390625 C 13.039062 -8.390625 12.242188 -8.117188 11.609375 -7.578125 C 10.972656 -7.046875 10.546875 -6.257812 10.328125 -5.21875 L 9.28125 0 L 8.015625 0 L 9.09375 -5.40625 C 9.15625 -5.738281 9.1875 -6.023438 9.1875 -6.265625 C 9.1875 -6.953125 8.988281 -7.476562 8.59375 -7.84375 C 8.207031 -8.207031 7.625 -8.390625 6.84375 -8.390625 C 5.863281 -8.390625 5.054688 -8.109375 4.421875 -7.546875 C 3.785156 -6.992188 3.351562 -6.171875 3.125 -5.078125 L 2.125 0 L 0.84375 0 L 2.71875 -9.46875 L 3.9375 -9.46875 L 3.640625 -7.953125 C 4.503906 -9.015625 5.695312 -9.546875 7.21875 -9.546875 C 8.007812 -9.546875 8.671875 -9.378906 9.203125 -9.046875 C 9.742188 -8.722656 10.113281 -8.257812 10.3125 -7.65625 C 10.78125 -8.28125 11.351562 -8.75 12.03125 -9.0625 C 12.707031 -9.382812 13.46875 -9.546875 14.3125 -9.546875 Z M 14.3125 -9.546875 "/></g></g></g><g fill="#ffffff" fill-opacity="1"><g transform="translate(143.962869, 252.732567)"><g><path d="M 7.328125 -9.546875 C 8.128906 -9.546875 8.84375 -9.378906 9.46875 -9.046875 C 10.101562 -8.722656 10.59375 -8.257812 10.9375 -7.65625 C 11.289062 -7.0625 11.46875 -6.359375 11.46875 -5.546875 C 11.46875 -4.472656 11.234375 -3.507812 10.765625 -2.65625 C 10.304688 -1.800781 9.664062 -1.128906 8.84375 -0.640625 C 8.03125 -0.148438 7.117188 0.09375 6.109375 0.09375 C 5.203125 0.09375 4.441406 -0.0820312 3.828125 -0.4375 C 3.222656 -0.789062 2.78125 -1.304688 2.5 -1.984375 L 1.421875 3.484375 L 0.140625 3.484375 L 2.71875 -9.46875 L 3.9375 -9.46875 L 3.640625 -7.953125 C 4.085938 -8.472656 4.625 -8.867188 5.25 -9.140625 C 5.875 -9.410156 6.566406 -9.546875 7.328125 -9.546875 Z M 6.078125 -1.046875 C 6.859375 -1.046875 7.554688 -1.234375 8.171875 -1.609375 C 8.796875 -1.984375 9.285156 -2.503906 9.640625 -3.171875 C 9.992188 -3.847656 10.171875 -4.613281 10.171875 -5.46875 C 10.171875 -6.394531 9.894531 -7.117188 9.34375 -7.640625 C 8.800781 -8.160156 8.039062 -8.421875 7.0625 -8.421875 C 6.28125 -8.421875 5.578125 -8.234375 4.953125 -7.859375 C 4.335938 -7.484375 3.851562 -6.953125 3.5 -6.265625 C 3.144531 -5.585938 2.96875 -4.828125 2.96875 -3.984375 C 2.96875 -3.054688 3.238281 -2.332031 3.78125 -1.8125 C 4.332031 -1.300781 5.097656 -1.046875 6.078125 -1.046875 Z M 6.078125 -1.046875 "/></g></g></g><g fill="#ffffff" fill-opacity="1"><g transform="translate(156.166837, 252.732567)"><g><path d="M 11.375 -9.46875 L 9.484375 0 L 8.265625 0 L 8.5625 -1.5 C 8.113281 -0.988281 7.578125 -0.59375 6.953125 -0.3125 C 6.328125 -0.0390625 5.632812 0.09375 4.875 0.09375 C 4.070312 0.09375 3.359375 -0.0664062 2.734375 -0.390625 C 2.109375 -0.710938 1.617188 -1.175781 1.265625 -1.78125 C 0.921875 -2.394531 0.75 -3.109375 0.75 -3.921875 C 0.75 -4.992188 0.976562 -5.953125 1.4375 -6.796875 C 1.90625 -7.648438 2.546875 -8.320312 3.359375 -8.8125 C 4.179688 -9.300781 5.097656 -9.546875 6.109375 -9.546875 C 7.003906 -9.546875 7.753906 -9.367188 8.359375 -9.015625 C 8.972656 -8.660156 9.421875 -8.148438 9.703125 -7.484375 L 10.09375 -9.46875 Z M 5.140625 -1.046875 C 5.921875 -1.046875 6.625 -1.234375 7.25 -1.609375 C 7.875 -1.984375 8.363281 -2.507812 8.71875 -3.1875 C 9.070312 -3.875 9.25 -4.632812 9.25 -5.46875 C 9.25 -6.394531 8.972656 -7.117188 8.421875 -7.640625 C 7.878906 -8.160156 7.117188 -8.421875 6.140625 -8.421875 C 5.359375 -8.421875 4.65625 -8.226562 4.03125 -7.84375 C 3.40625 -7.457031 2.914062 -6.925781 2.5625 -6.25 C 2.207031 -5.570312 2.03125 -4.816406 2.03125 -3.984375 C 2.03125 -3.054688 2.300781 -2.332031 2.84375 -1.8125 C 3.394531 -1.300781 4.160156 -1.046875 5.140625 -1.046875 Z M 5.140625 -1.046875 "/></g></g></g><g fill="#ffffff" fill-opacity="1"><g transform="translate(168.370804, 252.732567)"><g><path d="M 5.125 0.09375 C 4.238281 0.09375 3.460938 -0.0703125 2.796875 -0.40625 C 2.140625 -0.738281 1.632812 -1.207031 1.28125 -1.8125 C 0.925781 -2.414062 0.75 -3.117188 0.75 -3.921875 C 0.75 -4.992188 0.984375 -5.953125 1.453125 -6.796875 C 1.921875 -7.648438 2.578125 -8.320312 3.421875 -8.8125 C 4.265625 -9.300781 5.210938 -9.546875 6.265625 -9.546875 C 7.140625 -9.546875 7.890625 -9.382812 8.515625 -9.0625 C 9.148438 -8.75 9.640625 -8.28125 9.984375 -7.65625 L 8.90625 -7.015625 C 8.363281 -7.953125 7.445312 -8.421875 6.15625 -8.421875 C 5.375 -8.421875 4.664062 -8.226562 4.03125 -7.84375 C 3.40625 -7.457031 2.914062 -6.925781 2.5625 -6.25 C 2.207031 -5.582031 2.03125 -4.828125 2.03125 -3.984375 C 2.03125 -3.054688 2.300781 -2.332031 2.84375 -1.8125 C 3.394531 -1.300781 4.175781 -1.046875 5.1875 -1.046875 C 5.800781 -1.046875 6.367188 -1.160156 6.890625 -1.390625 C 7.410156 -1.628906 7.835938 -1.96875 8.171875 -2.40625 L 9.09375 -1.703125 C 8.664062 -1.140625 8.101562 -0.695312 7.40625 -0.375 C 6.707031 -0.0625 5.945312 0.09375 5.125 0.09375 Z M 5.125 0.09375 "/></g></g></g><g fill="#ffffff" fill-opacity="1"><g transform="translate(178.612773, 252.732567)"><g><path d="M 2.890625 -2.859375 C 2.847656 -2.578125 2.828125 -2.378906 2.828125 -2.265625 C 2.828125 -1.429688 3.28125 -1.015625 4.1875 -1.015625 C 4.726562 -1.015625 5.21875 -1.175781 5.65625 -1.5 L 5.953125 -0.515625 C 5.410156 -0.109375 4.710938 0.09375 3.859375 0.09375 C 3.148438 0.09375 2.585938 -0.0976562 2.171875 -0.484375 C 1.753906 -0.867188 1.546875 -1.394531 1.546875 -2.0625 C 1.546875 -2.332031 1.570312 -2.582031 1.625 -2.8125 L 2.71875 -8.390625 L 1.046875 -8.390625 L 1.234375 -9.46875 L 2.9375 -9.46875 L 3.34375 -11.53125 L 4.625 -11.53125 L 4.21875 -9.46875 L 7.09375 -9.46875 L 6.875 -8.390625 L 4 -8.390625 Z M 2.890625 -2.859375 "/></g></g></g><g fill="#ffffff" fill-opacity="1"><g transform="translate(185.920752, 252.732567)"><g/></g></g><g fill="#ffffff" fill-opacity="1"><g transform="translate(190.636736, 252.732567)"><g><path d="M 4.78125 0.109375 C 3.863281 0.109375 2.976562 -0.0390625 2.125 -0.34375 C 1.28125 -0.644531 0.644531 -1.03125 0.21875 -1.5 L 0.859375 -2.53125 C 1.285156 -2.082031 1.867188 -1.71875 2.609375 -1.4375 C 3.347656 -1.164062 4.113281 -1.03125 4.90625 -1.03125 C 6.03125 -1.03125 6.929688 -1.25 7.609375 -1.6875 C 8.285156 -2.125 8.625 -2.734375 8.625 -3.515625 C 8.625 -3.929688 8.492188 -4.269531 8.234375 -4.53125 C 7.984375 -4.800781 7.664062 -5.015625 7.28125 -5.171875 C 6.90625 -5.335938 6.382812 -5.515625 5.71875 -5.703125 C 4.9375 -5.929688 4.300781 -6.148438 3.8125 -6.359375 C 3.332031 -6.566406 2.921875 -6.878906 2.578125 -7.296875 C 2.234375 -7.710938 2.0625 -8.25 2.0625 -8.90625 C 2.0625 -9.6875 2.273438 -10.363281 2.703125 -10.9375 C 3.128906 -11.507812 3.722656 -11.945312 4.484375 -12.25 C 5.253906 -12.550781 6.128906 -12.703125 7.109375 -12.703125 C 7.867188 -12.703125 8.585938 -12.609375 9.265625 -12.421875 C 9.953125 -12.242188 10.535156 -11.976562 11.015625 -11.625 L 10.453125 -10.546875 C 10.003906 -10.878906 9.484375 -11.132812 8.890625 -11.3125 C 8.304688 -11.488281 7.6875 -11.578125 7.03125 -11.578125 C 5.925781 -11.578125 5.035156 -11.347656 4.359375 -10.890625 C 3.691406 -10.429688 3.359375 -9.8125 3.359375 -9.03125 C 3.359375 -8.601562 3.488281 -8.25 3.75 -7.96875 C 4.019531 -7.695312 4.347656 -7.476562 4.734375 -7.3125 C 5.128906 -7.15625 5.65625 -6.976562 6.3125 -6.78125 C 7.09375 -6.550781 7.722656 -6.332031 8.203125 -6.125 C 8.679688 -5.914062 9.085938 -5.613281 9.421875 -5.21875 C 9.765625 -4.832031 9.9375 -4.320312 9.9375 -3.6875 C 9.9375 -2.894531 9.71875 -2.210938 9.28125 -1.640625 C 8.84375 -1.078125 8.234375 -0.644531 7.453125 -0.34375 C 6.679688 -0.0390625 5.789062 0.109375 4.78125 0.109375 Z M 4.78125 0.109375 "/></g></g></g><g fill="#ffffff" fill-opacity="1"><g transform="translate(201.706709, 252.732567)"><g><path d="M 2.890625 -2.859375 C 2.847656 -2.578125 2.828125 -2.378906 2.828125 -2.265625 C 2.828125 -1.429688 3.28125 -1.015625 4.1875 -1.015625 C 4.726562 -1.015625 5.21875 -1.175781 5.65625 -1.5 L 5.953125 -0.515625 C 5.410156 -0.109375 4.710938 0.09375 3.859375 0.09375 C 3.148438 0.09375 2.585938 -0.0976562 2.171875 -0.484375 C 1.753906 -0.867188 1.546875 -1.394531 1.546875 -2.0625 C 1.546875 -2.332031 1.570312 -2.582031 1.625 -2.8125 L 2.71875 -8.390625 L 1.046875 -8.390625 L 1.234375 -9.46875 L 2.9375 -9.46875 L 3.34375 -11.53125 L 4.625 -11.53125 L 4.21875 -9.46875 L 7.09375 -9.46875 L 6.875 -8.390625 L 4 -8.390625 Z M 2.890625 -2.859375 "/></g></g></g><g fill="#ffffff" fill-opacity="1"><g transform="translate(208.672692, 252.732567)"><g><path d="M 11.375 -9.46875 L 9.484375 0 L 8.265625 0 L 8.5625 -1.5 C 8.113281 -0.988281 7.578125 -0.59375 6.953125 -0.3125 C 6.328125 -0.0390625 5.632812 0.09375 4.875 0.09375 C 4.070312 0.09375 3.359375 -0.0664062 2.734375 -0.390625 C 2.109375 -0.710938 1.617188 -1.175781 1.265625 -1.78125 C 0.921875 -2.394531 0.75 -3.109375 0.75 -3.921875 C 0.75 -4.992188 0.976562 -5.953125 1.4375 -6.796875 C 1.90625 -7.648438 2.546875 -8.320312 3.359375 -8.8125 C 4.179688 -9.300781 5.097656 -9.546875 6.109375 -9.546875 C 7.003906 -9.546875 7.753906 -9.367188 8.359375 -9.015625 C 8.972656 -8.660156 9.421875 -8.148438 9.703125 -7.484375 L 10.09375 -9.46875 Z M 5.140625 -1.046875 C 5.921875 -1.046875 6.625 -1.234375 7.25 -1.609375 C 7.875 -1.984375 8.363281 -2.507812 8.71875 -3.1875 C 9.070312 -3.875 9.25 -4.632812 9.25 -5.46875 C 9.25 -6.394531 8.972656 -7.117188 8.421875 -7.640625 C 7.878906 -8.160156 7.117188 -8.421875 6.140625 -8.421875 C 5.359375 -8.421875 4.65625 -8.226562 4.03125 -7.84375 C 3.40625 -7.457031 2.914062 -6.925781 2.5625 -6.25 C 2.207031 -5.570312 2.03125 -4.816406 2.03125 -3.984375 C 2.03125 -3.054688 2.300781 -2.332031 2.84375 -1.8125 C 3.394531 -1.300781 4.160156 -1.046875 5.140625 -1.046875 Z M 5.140625 -1.046875 "/></g></g></g><g fill="#ffffff" fill-opacity="1"><g transform="translate(220.87666, 252.732567)"><g><path d="M 3.625 -7.734375 C 4.039062 -8.347656 4.566406 -8.800781 5.203125 -9.09375 C 5.835938 -9.394531 6.601562 -9.546875 7.5 -9.546875 L 7.265625 -8.296875 L 6.90625 -8.3125 C 5.882812 -8.3125 5.046875 -8.015625 4.390625 -7.421875 C 3.742188 -6.835938 3.304688 -5.96875 3.078125 -4.8125 L 2.125 0 L 0.84375 0 L 2.71875 -9.46875 L 3.9375 -9.46875 Z M 3.625 -7.734375 "/></g></g></g><g fill="#ffffff" fill-opacity="1"><g transform="translate(228.364643, 252.732567)"><g><path d="M 2.890625 -2.859375 C 2.847656 -2.578125 2.828125 -2.378906 2.828125 -2.265625 C 2.828125 -1.429688 3.28125 -1.015625 4.1875 -1.015625 C 4.726562 -1.015625 5.21875 -1.175781 5.65625 -1.5 L 5.953125 -0.515625 C 5.410156 -0.109375 4.710938 0.09375 3.859375 0.09375 C 3.148438 0.09375 2.585938 -0.0976562 2.171875 -0.484375 C 1.753906 -0.867188 1.546875 -1.394531 1.546875 -2.0625 C 1.546875 -2.332031 1.570312 -2.582031 1.625 -2.8125 L 2.71875 -8.390625 L 1.046875 -8.390625 L 1.234375 -9.46875 L 2.9375 -9.46875 L 3.34375 -11.53125 L 4.625 -11.53125 L 4.21875 -9.46875 L 7.09375 -9.46875 L 6.875 -8.390625 L 4 -8.390625 Z M 2.890625 -2.859375 "/></g></g></g><g fill="#ffffff" fill-opacity="1"><g transform="translate(235.672622, 252.732567)"><g><path d="M 11.265625 -9.46875 L 9.375 0 L 8.15625 0 L 8.453125 -1.515625 C 7.566406 -0.441406 6.351562 0.09375 4.8125 0.09375 C 3.75 0.09375 2.921875 -0.175781 2.328125 -0.71875 C 1.734375 -1.269531 1.4375 -2.03125 1.4375 -3 C 1.4375 -3.34375 1.472656 -3.695312 1.546875 -4.0625 L 2.625 -9.46875 L 3.90625 -9.46875 L 2.828125 -4.0625 C 2.765625 -3.726562 2.734375 -3.445312 2.734375 -3.21875 C 2.734375 -2.519531 2.929688 -1.984375 3.328125 -1.609375 C 3.734375 -1.242188 4.335938 -1.0625 5.140625 -1.0625 C 6.148438 -1.0625 6.984375 -1.34375 7.640625 -1.90625 C 8.304688 -2.46875 8.753906 -3.289062 8.984375 -4.375 L 9.984375 -9.46875 Z M 11.265625 -9.46875 "/></g></g></g><g fill="#ffffff" fill-opacity="1"><g transform="translate(247.786582, 252.732567)"><g><path d="M 7.328125 -9.546875 C 8.128906 -9.546875 8.84375 -9.378906 9.46875 -9.046875 C 10.101562 -8.722656 10.59375 -8.257812 10.9375 -7.65625 C 11.289062 -7.0625 11.46875 -6.359375 11.46875 -5.546875 C 11.46875 -4.472656 11.234375 -3.507812 10.765625 -2.65625 C 10.304688 -1.800781 9.664062 -1.128906 8.84375 -0.640625 C 8.03125 -0.148438 7.117188 0.09375 6.109375 0.09375 C 5.203125 0.09375 4.441406 -0.0820312 3.828125 -0.4375 C 3.222656 -0.789062 2.78125 -1.304688 2.5 -1.984375 L 1.421875 3.484375 L 0.140625 3.484375 L 2.71875 -9.46875 L 3.9375 -9.46875 L 3.640625 -7.953125 C 4.085938 -8.472656 4.625 -8.867188 5.25 -9.140625 C 5.875 -9.410156 6.566406 -9.546875 7.328125 -9.546875 Z M 6.078125 -1.046875 C 6.859375 -1.046875 7.554688 -1.234375 8.171875 -1.609375 C 8.796875 -1.984375 9.285156 -2.503906 9.640625 -3.171875 C 9.992188 -3.847656 10.171875 -4.613281 10.171875 -5.46875 C 10.171875 -6.394531 9.894531 -7.117188 9.34375 -7.640625 C 8.800781 -8.160156 8.039062 -8.421875 7.0625 -8.421875 C 6.28125 -8.421875 5.578125 -8.234375 4.953125 -7.859375 C 4.335938 -7.484375 3.851562 -6.953125 3.5 -6.265625 C 3.144531 -5.585938 2.96875 -4.828125 2.96875 -3.984375 C 2.96875 -3.054688 3.238281 -2.332031 3.78125 -1.8125 C 4.332031 -1.300781 5.097656 -1.046875 6.078125 -1.046875 Z M 6.078125 -1.046875 "/></g></g></g><g fill="#ffffff" fill-opacity="1"><g transform="translate(259.990549, 252.732567)"><g/></g></g><g fill="#ffffff" fill-opacity="1"><g transform="translate(264.706533, 252.732567)"><g><path d="M 4.78125 0.109375 C 3.863281 0.109375 2.976562 -0.0390625 2.125 -0.34375 C 1.28125 -0.644531 0.644531 -1.03125 0.21875 -1.5 L 0.859375 -2.53125 C 1.285156 -2.082031 1.867188 -1.71875 2.609375 -1.4375 C 3.347656 -1.164062 4.113281 -1.03125 4.90625 -1.03125 C 6.03125 -1.03125 6.929688 -1.25 7.609375 -1.6875 C 8.285156 -2.125 8.625 -2.734375 8.625 -3.515625 C 8.625 -3.929688 8.492188 -4.269531 8.234375 -4.53125 C 7.984375 -4.800781 7.664062 -5.015625 7.28125 -5.171875 C 6.90625 -5.335938 6.382812 -5.515625 5.71875 -5.703125 C 4.9375 -5.929688 4.300781 -6.148438 3.8125 -6.359375 C 3.332031 -6.566406 2.921875 -6.878906 2.578125 -7.296875 C 2.234375 -7.710938 2.0625 -8.25 2.0625 -8.90625 C 2.0625 -9.6875 2.273438 -10.363281 2.703125 -10.9375 C 3.128906 -11.507812 3.722656 -11.945312 4.484375 -12.25 C 5.253906 -12.550781 6.128906 -12.703125 7.109375 -12.703125 C 7.867188 -12.703125 8.585938 -12.609375 9.265625 -12.421875 C 9.953125 -12.242188 10.535156 -11.976562 11.015625 -11.625 L 10.453125 -10.546875 C 10.003906 -10.878906 9.484375 -11.132812 8.890625 -11.3125 C 8.304688 -11.488281 7.6875 -11.578125 7.03125 -11.578125 C 5.925781 -11.578125 5.035156 -11.347656 4.359375 -10.890625 C 3.691406 -10.429688 3.359375 -9.8125 3.359375 -9.03125 C 3.359375 -8.601562 3.488281 -8.25 3.75 -7.96875 C 4.019531 -7.695312 4.347656 -7.476562 4.734375 -7.3125 C 5.128906 -7.15625 5.65625 -6.976562 6.3125 -6.78125 C 7.09375 -6.550781 7.722656 -6.332031 8.203125 -6.125 C 8.679688 -5.914062 9.085938 -5.613281 9.421875 -5.21875 C 9.765625 -4.832031 9.9375 -4.320312 9.9375 -3.6875 C 9.9375 -2.894531 9.71875 -2.210938 9.28125 -1.640625 C 8.84375 -1.078125 8.234375 -0.644531 7.453125 -0.34375 C 6.679688 -0.0390625 5.789062 0.109375 4.78125 0.109375 Z M 4.78125 0.109375 "/></g></g></g><g fill="#ffffff" fill-opacity="1"><g transform="translate(275.776505, 252.732567)"><g><path d="M 2.890625 -2.859375 C 2.847656 -2.578125 2.828125 -2.378906 2.828125 -2.265625 C 2.828125 -1.429688 3.28125 -1.015625 4.1875 -1.015625 C 4.726562 -1.015625 5.21875 -1.175781 5.65625 -1.5 L 5.953125 -0.515625 C 5.410156 -0.109375 4.710938 0.09375 3.859375 0.09375 C 3.148438 0.09375 2.585938 -0.0976562 2.171875 -0.484375 C 1.753906 -0.867188 1.546875 -1.394531 1.546875 -2.0625 C 1.546875 -2.332031 1.570312 -2.582031 1.625 -2.8125 L 2.71875 -8.390625 L 1.046875 -8.390625 L 1.234375 -9.46875 L 2.9375 -9.46875 L 3.34375 -11.53125 L 4.625 -11.53125 L 4.21875 -9.46875 L 7.09375 -9.46875 L 6.875 -8.390625 L 4 -8.390625 Z M 2.890625 -2.859375 "/></g></g></g><g fill="#ffffff" fill-opacity="1"><g transform="translate(283.084484, 252.732567)"><g><path d="M 11.265625 -9.46875 L 9.375 0 L 8.15625 0 L 8.453125 -1.515625 C 7.566406 -0.441406 6.351562 0.09375 4.8125 0.09375 C 3.75 0.09375 2.921875 -0.175781 2.328125 -0.71875 C 1.734375 -1.269531 1.4375 -2.03125 1.4375 -3 C 1.4375 -3.34375 1.472656 -3.695312 1.546875 -4.0625 L 2.625 -9.46875 L 3.90625 -9.46875 L 2.828125 -4.0625 C 2.765625 -3.726562 2.734375 -3.445312 2.734375 -3.21875 C 2.734375 -2.519531 2.929688 -1.984375 3.328125 -1.609375 C 3.734375 -1.242188 4.335938 -1.0625 5.140625 -1.0625 C 6.148438 -1.0625 6.984375 -1.34375 7.640625 -1.90625 C 8.304688 -2.46875 8.753906 -3.289062 8.984375 -4.375 L 9.984375 -9.46875 Z M 11.265625 -9.46875 "/></g></g></g><g fill="#ffffff" fill-opacity="1"><g transform="translate(295.198444, 252.732567)"><g><path d="M 12.15625 -13.359375 L 9.484375 0 L 8.265625 0 L 8.5625 -1.5 C 8.113281 -0.988281 7.578125 -0.59375 6.953125 -0.3125 C 6.328125 -0.0390625 5.632812 0.09375 4.875 0.09375 C 4.070312 0.09375 3.359375 -0.0664062 2.734375 -0.390625 C 2.109375 -0.710938 1.617188 -1.175781 1.265625 -1.78125 C 0.921875 -2.394531 0.75 -3.109375 0.75 -3.921875 C 0.75 -4.992188 0.976562 -5.953125 1.4375 -6.796875 C 1.90625 -7.648438 2.546875 -8.320312 3.359375 -8.8125 C 4.179688 -9.300781 5.097656 -9.546875 6.109375 -9.546875 C 6.992188 -9.546875 7.742188 -9.367188 8.359375 -9.015625 C 8.972656 -8.660156 9.421875 -8.148438 9.703125 -7.484375 L 10.875 -13.359375 Z M 5.140625 -1.046875 C 5.921875 -1.046875 6.625 -1.234375 7.25 -1.609375 C 7.875 -1.984375 8.363281 -2.507812 8.71875 -3.1875 C 9.070312 -3.875 9.25 -4.632812 9.25 -5.46875 C 9.25 -6.394531 8.972656 -7.117188 8.421875 -7.640625 C 7.878906 -8.160156 7.117188 -8.421875 6.140625 -8.421875 C 5.359375 -8.421875 4.65625 -8.226562 4.03125 -7.84375 C 3.40625 -7.457031 2.914062 -6.925781 2.5625 -6.25 C 2.207031 -5.570312 2.03125 -4.816406 2.03125 -3.984375 C 2.03125 -3.054688 2.300781 -2.332031 2.84375 -1.8125 C 3.394531 -1.300781 4.160156 -1.046875 5.140625 -1.046875 Z M 5.140625 -1.046875 "/></g></g></g><g fill="#ffffff" fill-opacity="1"><g transform="translate(307.402411, 252.732567)"><g><path d="M 2.71875 -9.46875 L 4 -9.46875 L 2.125 0 L 0.84375 0 Z M 3.90625 -11.53125 C 3.65625 -11.53125 3.445312 -11.613281 3.28125 -11.78125 C 3.125 -11.957031 3.046875 -12.160156 3.046875 -12.390625 C 3.046875 -12.660156 3.132812 -12.890625 3.3125 -13.078125 C 3.5 -13.265625 3.738281 -13.359375 4.03125 -13.359375 C 4.28125 -13.359375 4.488281 -13.273438 4.65625 -13.109375 C 4.820312 -12.953125 4.90625 -12.765625 4.90625 -12.546875 C 4.90625 -12.253906 4.8125 -12.007812 4.625 -11.8125 C 4.4375 -11.625 4.195312 -11.53125 3.90625 -11.53125 Z M 3.90625 -11.53125 "/></g></g></g><g fill="#ffffff" fill-opacity="1"><g transform="translate(312.244383, 252.732567)"><g><path d="M 5.0625 0.09375 C 4.195312 0.09375 3.4375 -0.0703125 2.78125 -0.40625 C 2.132812 -0.738281 1.632812 -1.207031 1.28125 -1.8125 C 0.925781 -2.414062 0.75 -3.117188 0.75 -3.921875 C 0.75 -4.992188 0.984375 -5.953125 1.453125 -6.796875 C 1.921875 -7.648438 2.570312 -8.320312 3.40625 -8.8125 C 4.238281 -9.300781 5.179688 -9.546875 6.234375 -9.546875 C 7.546875 -9.546875 8.585938 -9.179688 9.359375 -8.453125 C 10.140625 -7.734375 10.53125 -6.765625 10.53125 -5.546875 C 10.53125 -4.472656 10.296875 -3.507812 9.828125 -2.65625 C 9.359375 -1.800781 8.707031 -1.128906 7.875 -0.640625 C 7.039062 -0.148438 6.101562 0.09375 5.0625 0.09375 Z M 5.140625 -1.046875 C 5.921875 -1.046875 6.625 -1.234375 7.25 -1.609375 C 7.875 -1.984375 8.363281 -2.507812 8.71875 -3.1875 C 9.070312 -3.875 9.25 -4.632812 9.25 -5.46875 C 9.25 -6.394531 8.972656 -7.117188 8.421875 -7.640625 C 7.878906 -8.160156 7.117188 -8.421875 6.140625 -8.421875 C 5.359375 -8.421875 4.65625 -8.226562 4.03125 -7.84375 C 3.40625 -7.457031 2.914062 -6.925781 2.5625 -6.25 C 2.207031 -5.570312 2.03125 -4.816406 2.03125 -3.984375 C 2.03125 -3.054688 2.300781 -2.332031 2.84375 -1.8125 C 3.394531 -1.300781 4.160156 -1.046875 5.140625 -1.046875 Z M 5.140625 -1.046875 "/></g></g></g><g fill="#ffffff" fill-opacity="1"><g transform="translate(187.499992, 217.813754)"><g><path d="M 6.15625 -51.953125 L 29.765625 -51.953125 C 35.398438 -51.953125 40.382812 -50.875 44.71875 -48.71875 C 49.050781 -46.570312 52.414062 -43.539062 54.8125 -39.625 C 57.207031 -35.71875 58.40625 -31.171875 58.40625 -25.984375 C 58.40625 -20.785156 57.207031 -16.226562 54.8125 -12.3125 C 52.414062 -8.40625 49.050781 -5.375 44.71875 -3.21875 C 40.382812 -1.070312 35.398438 0 29.765625 0 L 6.15625 0 Z M 29.171875 -9.875 C 34.367188 -9.875 38.507812 -11.320312 41.59375 -14.21875 C 44.6875 -17.113281 46.234375 -21.035156 46.234375 -25.984375 C 46.234375 -30.929688 44.6875 -34.847656 41.59375 -37.734375 C 38.507812 -40.628906 34.367188 -42.078125 29.171875 -42.078125 L 18.1875 -42.078125 L 18.1875 -9.875 Z M 29.171875 -9.875 "/></g></g></g><g fill="#ffffff" fill-opacity="1"><g transform="translate(241.80554, 216.079162)"><g><path d="M 31.03125 0.890625 C 25.726562 0.890625 20.9375 -0.257812 16.65625 -2.5625 C 12.382812 -4.863281 9.019531 -8.054688 6.5625 -12.140625 C 4.113281 -16.222656 2.890625 -20.835938 2.890625 -25.984375 C 2.890625 -31.128906 4.113281 -35.738281 6.5625 -39.8125 C 9.019531 -43.894531 12.382812 -47.085938 16.65625 -49.390625 C 20.9375 -51.691406 25.75 -52.84375 31.09375 -52.84375 C 35.601562 -52.84375 39.675781 -52.050781 43.3125 -50.46875 C 46.945312 -48.882812 50 -46.609375 52.46875 -43.640625 L 44.75 -36.515625 C 41.238281 -40.578125 36.882812 -42.609375 31.6875 -42.609375 C 28.476562 -42.609375 25.609375 -41.898438 23.078125 -40.484375 C 20.554688 -39.078125 18.585938 -37.109375 17.171875 -34.578125 C 15.765625 -32.054688 15.0625 -29.191406 15.0625 -25.984375 C 15.0625 -22.765625 15.765625 -19.890625 17.171875 -17.359375 C 18.585938 -14.835938 20.554688 -12.875 23.078125 -11.46875 C 25.609375 -10.0625 28.476562 -9.359375 31.6875 -9.359375 C 36.882812 -9.359375 41.238281 -11.410156 44.75 -15.515625 L 52.46875 -8.390625 C 50 -5.367188 46.929688 -3.066406 43.265625 -1.484375 C 39.609375 0.0976562 35.53125 0.890625 31.03125 0.890625 Z M 31.03125 0.890625 "/></g></g></g><g fill="#83ef03" fill-opacity="1"><g transform="translate(303.202542, 216.293247)"><g><path d="M 6.15625 -51.953125 L 18.1875 -51.953125 L 18.1875 0 L 6.15625 0 Z M 6.15625 -51.953125 "/></g></g></g><g clip-path="url(#bf05ea7cac)"><g clip-path="url(#295f7c445e)"><g transform="matrix(1, 0, 0, 1, 109, 126)"><g clip-path="url(#b077f15b53)"><g clip-path="url(#afe10def77)"><g clip-path="url(#f9644e0fd3)"><rect x="-191.5" width="540" fill="#83ef03" height="539.999987" y="-208.499998" fill-opacity="1"/></g></g></g></g></g></g><g clip-path="url(#53b686a07a)"><g clip-path="url(#fb511bb26f)"><g transform="matrix(1, 0, 0, 1, 51, 164)"><g clip-path="url(#ce63a9bc38)"><g clip-path="url(#993bb29b89)"><g clip-path="url(#5f82f848a0)"><rect x="-133.5" width="540" fill="#ffffff" height="539.999987" y="-246.499998" fill-opacity="1"/></g></g></g></g></g></g></svg>