<svg width="139" height="32" viewBox="0 0 139 32" fill="none" xmlns="http://www.w3.org/2000/svg">
<path d="M18.2856 32L18.2856 27.4286L11.4285 27.4286C7.64141 27.4286 4.57137 24.3585 4.57137 20.5714C4.57137 16.7843 7.64141 13.7143 11.4285 13.7143L18.2856 13.7143L18.2856 9.14286L11.4285 9.14286C5.11668 9.14286 -6.13916e-05 14.2596 -6.19434e-05 20.5714C-6.24952e-05 26.8833 5.11668 32 11.4285 32L18.2856 32Z" fill="#00363D"/>
<rect x="13.7144" y="9.14258" width="4.57143" height="4.57143" fill="#48A300"/>
<path d="M13.7144 0V4.57143H20.5715C24.3586 4.57143 27.4286 7.64148 27.4286 11.4286C27.4286 15.2157 24.3586 18.2857 20.5715 18.2857H13.7144V22.8571H20.5715C26.8833 22.8571 32.0001 17.7404 32.0001 11.4286C32.0001 5.11675 26.8833 0 20.5715 0H13.7144Z" fill="#48A300"/>
<path d="M46.6912 23.3603C45.4516 23.3603 44.3198 23.0616 43.2958 22.4642C42.2898 21.8493 41.4903 21.0059 40.8975 19.9341C40.3226 18.8448 40.0352 17.6061 40.0352 16.218C40.0352 14.8475 40.3226 13.6176 40.8975 12.5282C41.4903 11.4389 42.2898 10.5955 43.2958 9.99811C44.3198 9.38315 45.4516 9.07567 46.6912 9.07567C47.6253 9.07567 48.4517 9.27773 49.1703 9.68185C49.8889 10.0684 50.4369 10.5516 50.8141 11.1314H51.0297L50.8141 9.2338V4.06814H54.3173V22.9386H51.0297V21.331H50.8141C50.4548 21.9108 49.9069 22.394 49.1703 22.7805C48.4517 23.167 47.6253 23.3603 46.6912 23.3603ZM47.284 20.1713C47.9487 20.1713 48.5685 20.0044 49.1434 19.6706C49.7183 19.3367 50.1764 18.8711 50.5177 18.2737C50.859 17.6763 51.0297 16.9911 51.0297 16.218C51.0297 15.4449 50.859 14.7597 50.5177 14.1623C50.1764 13.5649 49.7183 13.1081 49.1434 12.7918C48.5685 12.458 47.9487 12.291 47.284 12.291C46.6373 12.291 46.0265 12.458 45.4516 12.7918C44.8767 13.1081 44.4186 13.5649 44.0773 14.1623C43.7359 14.7597 43.5653 15.4449 43.5653 16.218C43.5653 16.9911 43.7359 17.6763 44.0773 18.2737C44.4186 18.8711 44.8767 19.3367 45.4516 19.6706C46.0265 20.0044 46.6373 20.1713 47.284 20.1713Z" fill="#1A1C1D"/>
<path d="M60.7007 7.36257C60.2516 7.80182 59.7127 8.02145 59.0839 8.02145C58.4551 8.02145 57.9162 7.80182 57.4671 7.36257C57.0179 6.92331 56.7934 6.3962 56.7934 5.78124C56.7934 5.16628 57.0179 4.64796 57.4671 4.22627C57.9162 3.78701 58.4551 3.56738 59.0839 3.56738C59.7127 3.56738 60.2426 3.78701 60.6738 4.22627C61.1229 4.64796 61.3475 5.16628 61.3475 5.78124C61.3475 6.3962 61.1319 6.92331 60.7007 7.36257ZM57.3054 9.49736H60.8355V22.9386H57.3054V9.49736Z" fill="#1A1C1D"/>
<path d="M70.1467 23.3603C68.7634 23.3603 67.5238 23.0616 66.428 22.4642C65.3321 21.8493 64.4698 20.9971 63.841 19.9078C63.2302 18.8184 62.9248 17.5885 62.9248 16.218C62.9248 14.8475 63.2302 13.6264 63.841 12.5546C64.4698 11.4652 65.3321 10.6131 66.428 9.99811C67.5238 9.38315 68.7634 9.07567 70.1467 9.07567C71.6737 9.07567 72.9852 9.40072 74.0811 10.0508C75.1769 10.6834 75.9674 11.5882 76.4524 12.7654L73.2187 14.0832C72.6439 12.8884 71.6199 12.291 70.1467 12.291C69.0688 12.291 68.1796 12.6512 67.4789 13.3716C66.7963 14.092 66.4549 15.0408 66.4549 16.218C66.4549 17.4128 66.7963 18.3704 67.4789 19.0907C68.1796 19.8111 69.0688 20.1713 70.1467 20.1713C71.6378 20.1713 72.7157 19.5388 73.3804 18.2737L76.5872 19.6442C75.9943 20.8214 75.15 21.7351 74.0541 22.3852C72.9582 23.0353 71.6558 23.3603 70.1467 23.3603Z" fill="#1A1C1D"/>
<path d="M78.4268 4.06814H81.9569V8.83847L81.7413 11.1841H81.9569C82.3522 10.5516 82.927 10.042 83.6816 9.65549C84.4361 9.26894 85.2535 9.07567 86.1338 9.07567C87.8045 9.07567 89.08 9.56764 89.9603 10.5516C90.8586 11.5179 91.3077 12.8621 91.3077 14.584V22.9386H87.7776V15.0056C87.7776 14.1447 87.535 13.477 87.05 13.0026C86.5829 12.5282 85.9541 12.291 85.1637 12.291C84.2295 12.291 83.457 12.66 82.8462 13.398C82.2533 14.1359 81.9569 15.0408 81.9569 16.1126V22.9386H78.4268V4.06814Z" fill="#1A1C1D"/>
<path d="M98.8958 23.3603C97.243 23.3603 95.9854 22.8596 95.1231 21.8581C94.2608 20.8566 93.8297 19.4597 93.8297 17.6675V9.49736H97.3598V17.2459C97.3598 18.1595 97.5843 18.8799 98.0334 19.407C98.4826 19.9165 99.0754 20.1713 99.812 20.1713C100.818 20.1713 101.617 19.8111 102.21 19.0907C102.803 18.3704 103.1 17.4567 103.1 16.3498V9.49736H106.63V22.9386H103.315V21.2519H103.1C102.686 21.902 102.103 22.4203 101.348 22.8069C100.611 23.1758 99.794 23.3603 98.8958 23.3603Z" fill="#1A1C1D"/>
<path d="M109.369 9.49736H112.684V11.1841H112.899C113.312 10.534 113.896 10.0245 114.651 9.65549C115.405 9.26894 116.223 9.07567 117.103 9.07567C118.756 9.07567 120.013 9.56764 120.876 10.5516C121.738 11.5355 122.169 12.8796 122.169 14.584V22.9386H118.639V15.0056C118.639 14.1447 118.414 13.477 117.965 13.0026C117.516 12.5282 116.887 12.291 116.079 12.291C115.127 12.291 114.354 12.6512 113.762 13.3716C113.187 14.092 112.899 14.9969 112.899 16.0862V22.9386H109.369V9.49736Z" fill="#1A1C1D"/>
<path d="M131.002 29.0531H126.798V25.9959H131.002C132.116 25.9959 132.996 25.662 133.643 24.9944C134.307 24.3267 134.64 23.3779 134.64 22.148V21.0938H134.424C133.993 21.6911 133.427 22.148 132.727 22.4642C132.026 22.7805 131.226 22.9386 130.328 22.9386C129.196 22.9386 128.136 22.6575 127.148 22.0953C126.178 21.5154 125.397 20.7072 124.804 19.6706C124.211 18.6163 123.915 17.3952 123.915 16.0072C123.915 14.6191 124.211 13.4067 124.804 12.3701C125.397 11.3159 126.178 10.5076 127.148 9.9454C128.136 9.36558 129.196 9.07567 130.328 9.07567C131.226 9.07567 132.026 9.2338 132.727 9.55007C133.427 9.86633 133.993 10.3232 134.424 10.9206H134.64V9.49736H138.035V22.0162C138.035 23.457 137.748 24.7044 137.173 25.7587C136.598 26.8129 135.781 27.6211 134.721 28.1834C133.661 28.7632 132.421 29.0531 131.002 29.0531ZM131.056 19.8023C132.044 19.8023 132.888 19.4685 133.589 18.8008C134.289 18.1156 134.64 17.1844 134.64 16.0072C134.64 14.7948 134.289 13.8636 133.589 13.2135C132.906 12.5458 132.062 12.212 131.056 12.212C130.05 12.212 129.196 12.5458 128.496 13.2135C127.795 13.8811 127.445 14.8124 127.445 16.0072C127.445 17.2019 127.795 18.1332 128.496 18.8008C129.196 19.4685 130.05 19.8023 131.056 19.8023Z" fill="#1A1C1D"/>
</svg>
